<svg width="516" height="185" viewBox="0 0 516 185" fill="none" xmlns="http://www.w3.org/2000/svg">
<path d="M73.0739 139H0.0511379V118.443H47.7614V96.9148H3.78409V76.3068H47.7614V54.8295H0.0511379V34.2727H73.0739V139Z" fill="#1c95d9"/>
<path d="M77.9261 139H103.239V103.153H116.227L135.352 139H162.966L141.233 99.1136C152.739 93.8977 159.386 83.6193 159.386 69.1477C159.386 47.6193 144.71 34.2727 121.188 34.2727H77.9261V139ZM103.239 83.2102V54.6761H115.716C127.068 54.6761 133.153 59.4318 133.153 69.1477C133.153 78.8636 127.068 83.2102 115.716 83.2102H103.239Z" fill="#1c95d9"/>
<path d="M173.552 39.248L168.752 38.416V34.448H178.096C179.504 34.448 181.403 34.3627 183.792 34.192C184.347 34.1493 185.179 34.1067 186.288 34.064C187.44 34.0213 188.464 34 189.36 34C197.211 34 203.077 35.9627 206.96 39.888C210.885 43.8133 212.848 49.3813 212.848 56.592C212.848 61.6267 211.867 66.1067 209.904 70.032C207.984 73.9573 205.232 77.0293 201.648 79.248C198.064 81.424 193.883 82.512 189.104 82.512C187.867 82.512 185.925 82.4267 183.28 82.256C180.805 82.0853 179.12 82 178.224 82H168.496V78.16L173.552 77.52V39.248ZM182.832 77.712C184.283 78.096 186.309 78.288 188.912 78.288C193.179 78.2027 196.528 76.496 198.96 73.168C201.392 69.7973 202.608 64.7627 202.608 58.064C202.608 51.7067 201.413 46.8 199.024 43.344C196.635 39.8453 192.923 38.096 187.888 38.096C186.821 38.096 185.797 38.16 184.816 38.288C183.877 38.416 183.216 38.5013 182.832 38.544V77.712ZM222.24 39.248L217.12 38.416V34.448H251.232L252.064 45.2H247.583L245.472 38.864L231.648 38.288V55.504L240.544 55.312L241.568 50.064H245.664V65.552H241.568L240.544 60.048L231.648 59.856V77.904L247.136 77.136L250.847 68.944L255.648 70.288L253.984 82H217.184V78.16L222.24 77.52V39.248ZM275.633 82.704C273.329 82.704 271.26 82.512 269.425 82.128C267.59 81.744 265.542 81.232 263.281 80.592C261.788 80.1653 260.785 79.9307 260.273 79.888L260.849 68.048H266.033L267.441 76.304C267.996 76.9013 268.977 77.4347 270.385 77.904C271.836 78.3733 273.478 78.608 275.313 78.608C278.172 78.608 280.305 77.9893 281.713 76.752C283.164 75.472 283.889 73.7013 283.889 71.44C283.889 69.9467 283.462 68.6667 282.609 67.6C281.756 66.4907 280.582 65.5093 279.089 64.656C277.596 63.76 275.548 62.736 272.945 61.584C269.404 59.9627 266.46 58.0427 264.113 55.824C261.809 53.5627 260.657 50.512 260.657 46.672C260.657 44.2827 261.276 42.128 262.513 40.208C263.75 38.2453 265.585 36.7093 268.017 35.6C270.492 34.448 273.5 33.872 277.041 33.872C279.132 33.872 280.966 34.0213 282.545 34.32C284.166 34.6187 285.916 35.024 287.793 35.536C288.902 35.8347 289.734 36.0267 290.289 36.112L289.905 47.312H284.785L283.441 39.44C283.057 39.056 282.289 38.6933 281.137 38.352C279.985 37.968 278.705 37.776 277.297 37.776C274.737 37.776 272.796 38.3733 271.473 39.568C270.193 40.72 269.553 42.2773 269.553 44.24C269.553 45.8187 270.022 47.184 270.961 48.336C271.942 49.488 273.116 50.4693 274.481 51.28C275.846 52.048 278.001 53.1573 280.945 54.608C283.334 55.76 285.382 56.8907 287.089 58C288.796 59.1093 290.268 60.56 291.505 62.352C292.742 64.1013 293.361 66.1707 293.361 68.56C293.361 70.9067 292.764 73.1467 291.569 75.28C290.417 77.4133 288.497 79.184 285.809 80.592C283.164 82 279.772 82.704 275.633 82.704ZM303.572 39.248L298.132 38.416V34.448H318.612V38.416L312.98 39.248V77.52L318.612 78.224V82H298.132V78.16L303.572 77.52V39.248ZM346.204 82.704C341.511 82.704 337.457 81.68 334.044 79.632C330.673 77.5413 328.113 74.6827 326.364 71.056C324.615 67.4293 323.74 63.3333 323.74 58.768C323.74 53.52 324.743 49.0187 326.748 45.264C328.796 41.5093 331.676 38.672 335.388 36.752C339.1 34.832 343.431 33.872 348.38 33.872C353.031 33.872 358.257 34.5333 364.06 35.856L363.356 47.76H356.892L355.164 39.568C354.737 39.1413 353.927 38.7573 352.732 38.416C351.537 38.032 349.98 37.84 348.06 37.84C343.879 37.84 340.593 39.5467 338.204 42.96C335.815 46.3307 334.62 51.216 334.62 57.616C334.62 63.888 335.644 68.9653 337.692 72.848C339.74 76.688 342.855 78.608 347.036 78.608C348.743 78.608 350.343 78.3947 351.836 77.968C353.329 77.5413 354.46 76.9867 355.228 76.304V62.544L348.444 61.904V57.616H367.9V61.904L364.508 62.48V79.44C363.612 79.4827 361.991 79.8453 359.644 80.528C356.913 81.2533 354.567 81.7867 352.604 82.128C350.684 82.512 348.551 82.704 346.204 82.704ZM376.741 39.248L371.685 38.416V34.448H386.213L405.285 63.248L408.869 70.544V39.248L403.365 38.416V34.448H419.237V38.416L414.309 39.248V82H406.565L386.661 51.728L382.181 43.28V77.52L388.645 78.16V82H371.685V78.16L376.741 77.52V39.248ZM439.508 82.704C437.204 82.704 435.135 82.512 433.3 82.128C431.465 81.744 429.417 81.232 427.156 80.592C425.663 80.1653 424.66 79.9307 424.148 79.888L424.724 68.048H429.908L431.316 76.304C431.871 76.9013 432.852 77.4347 434.26 77.904C435.711 78.3733 437.353 78.608 439.188 78.608C442.047 78.608 444.18 77.9893 445.588 76.752C447.039 75.472 447.764 73.7013 447.764 71.44C447.764 69.9467 447.337 68.6667 446.484 67.6C445.631 66.4907 444.457 65.5093 442.964 64.656C441.471 63.76 439.423 62.736 436.82 61.584C433.279 59.9627 430.335 58.0427 427.988 55.824C425.684 53.5627 424.532 50.512 424.532 46.672C424.532 44.2827 425.151 42.128 426.388 40.208C427.625 38.2453 429.46 36.7093 431.892 35.6C434.367 34.448 437.375 33.872 440.916 33.872C443.007 33.872 444.841 34.0213 446.42 34.32C448.041 34.6187 449.791 35.024 451.668 35.536C452.777 35.8347 453.609 36.0267 454.164 36.112L453.78 47.312H448.66L447.316 39.44C446.932 39.056 446.164 38.6933 445.012 38.352C443.86 37.968 442.58 37.776 441.172 37.776C438.612 37.776 436.671 38.3733 435.348 39.568C434.068 40.72 433.428 42.2773 433.428 44.24C433.428 45.8187 433.897 47.184 434.836 48.336C435.817 49.488 436.991 50.4693 438.356 51.28C439.721 52.048 441.876 53.1573 444.82 54.608C447.209 55.76 449.257 56.8907 450.964 58C452.671 59.1093 454.143 60.56 455.38 62.352C456.617 64.1013 457.236 66.1707 457.236 68.56C457.236 70.9067 456.639 73.1467 455.444 75.28C454.292 77.4133 452.372 79.184 449.684 80.592C447.039 82 443.647 82.704 439.508 82.704Z" fill="#F3F6FB"/>
<path d="M172.248 114.952L169.368 114.484V112.252H188.556L189.024 118.3H186.504L185.316 114.736L177.54 114.412V124.096L182.544 123.988L183.12 121.036H185.424V129.748H183.12L182.544 126.652L177.54 126.544V136.696L186.252 136.264L188.34 131.656L191.04 132.412L190.104 139H169.404V136.84L172.248 136.48V114.952ZM197.818 114.952L195.118 114.484V112.252H200.374C201.166 112.252 202.234 112.204 203.578 112.108C203.89 112.084 204.358 112.06 204.982 112.036C205.63 112.012 206.206 112 206.71 112C211.126 112 214.426 113.104 216.61 115.312C218.818 117.52 219.922 120.652 219.922 124.708C219.922 127.54 219.37 130.06 218.266 132.268C217.186 134.476 215.638 136.204 213.622 137.452C211.606 138.676 209.254 139.288 206.566 139.288C205.87 139.288 204.778 139.24 203.29 139.144C201.898 139.048 200.95 139 200.446 139H194.974V136.84L197.818 136.48V114.952ZM203.038 136.588C203.854 136.804 204.994 136.912 206.458 136.912C208.858 136.864 210.742 135.904 212.11 134.032C213.478 132.136 214.162 129.304 214.162 125.536C214.162 121.96 213.49 119.2 212.146 117.256C210.802 115.288 208.714 114.304 205.882 114.304C205.282 114.304 204.706 114.34 204.154 114.412C203.626 114.484 203.254 114.532 203.038 114.556V136.588ZM222.289 112.252H233.089V114.484L229.957 114.952L234.493 131.188L235.321 135.184L236.149 131.188L240.001 118.012L238.993 114.952L236.617 114.484V112.252H247.885V114.484L244.429 114.952L248.929 131.188L249.901 135.508L250.657 131.188L254.761 114.952L251.521 114.484V112.252H260.197V114.484L257.893 114.952L251.053 139.18H246.301L241.333 122.368L236.581 139.18H231.901L224.485 114.988L222.289 114.484V112.252ZM271.342 112.108H276.85L285.166 136.48L287.254 136.84V139H276.634V136.84L279.334 136.48L277.93 131.8H268.606L267.202 136.516L270.118 136.84V139H260.938L260.902 136.84L263.062 136.48L271.342 112.108ZM273.826 118.192L273.178 115.384L272.494 118.228L269.29 129.28H277.21L273.826 118.192ZM290.176 136.84L293.02 136.48V114.952L290.32 114.448V112.252H295.54C295.996 112.252 296.5 112.24 297.052 112.216C297.604 112.192 298.024 112.168 298.312 112.144C299.56 112.048 300.592 112 301.408 112C303.88 112 305.86 112.252 307.348 112.756C308.836 113.26 309.916 114.028 310.588 115.06C311.26 116.092 311.596 117.448 311.596 119.128C311.596 120.784 311.152 122.32 310.264 123.736C309.376 125.152 308.092 126.124 306.412 126.652C307.372 127.06 308.224 127.804 308.968 128.884C309.712 129.964 310.504 131.368 311.344 133.096C311.944 134.272 312.4 135.124 312.712 135.652C313.048 136.156 313.372 136.444 313.684 136.516L314.872 136.876V139H308.752C308.368 139 307.96 138.616 307.528 137.848C307.12 137.056 306.58 135.82 305.908 134.14C305.116 132.172 304.432 130.636 303.856 129.532C303.28 128.428 302.668 127.744 302.02 127.48H298.312V136.48L301.624 136.84V139H290.176V136.84ZM301.624 125.284C302.992 125.284 304.06 124.792 304.828 123.808C305.596 122.824 305.98 121.348 305.98 119.38C305.98 117.628 305.596 116.332 304.828 115.492C304.084 114.652 302.788 114.232 300.94 114.232C300.268 114.232 299.692 114.268 299.212 114.34C298.756 114.388 298.456 114.412 298.312 114.412V125.212C298.6 125.26 299.296 125.284 300.4 125.284H301.624ZM320.945 114.952L318.245 114.484V112.252H323.501C324.293 112.252 325.361 112.204 326.705 112.108C327.017 112.084 327.485 112.06 328.109 112.036C328.757 112.012 329.333 112 329.837 112C334.253 112 337.553 113.104 339.737 115.312C341.945 117.52 343.049 120.652 343.049 124.708C343.049 127.54 342.497 130.06 341.393 132.268C340.313 134.476 338.765 136.204 336.749 137.452C334.733 138.676 332.381 139.288 329.693 139.288C328.997 139.288 327.905 139.24 326.417 139.144C325.025 139.048 324.077 139 323.573 139H318.101V136.84L320.945 136.48V114.952ZM326.165 136.588C326.981 136.804 328.121 136.912 329.585 136.912C331.985 136.864 333.869 135.904 335.237 134.032C336.605 132.136 337.289 129.304 337.289 125.536C337.289 121.96 336.617 119.2 335.273 117.256C333.929 115.288 331.841 114.304 329.009 114.304C328.409 114.304 327.833 114.34 327.281 114.412C326.753 114.484 326.381 114.532 326.165 114.556V136.588ZM357.991 136.84L360.835 136.48V114.952L358.135 114.448V112.252H363.355C363.811 112.252 364.315 112.24 364.867 112.216C365.419 112.192 365.839 112.168 366.127 112.144C367.375 112.048 368.407 112 369.223 112C371.695 112 373.675 112.252 375.163 112.756C376.651 113.26 377.731 114.028 378.403 115.06C379.075 116.092 379.411 117.448 379.411 119.128C379.411 120.784 378.967 122.32 378.079 123.736C377.191 125.152 375.907 126.124 374.227 126.652C375.187 127.06 376.039 127.804 376.783 128.884C377.527 129.964 378.319 131.368 379.159 133.096C379.759 134.272 380.215 135.124 380.527 135.652C380.863 136.156 381.187 136.444 381.499 136.516L382.687 136.876V139H376.567C376.183 139 375.775 138.616 375.343 137.848C374.935 137.056 374.395 135.82 373.723 134.14C372.931 132.172 372.247 130.636 371.671 129.532C371.095 128.428 370.483 127.744 369.835 127.48H366.127V136.48L369.439 136.84V139H357.991V136.84ZM369.439 125.284C370.807 125.284 371.875 124.792 372.643 123.808C373.411 122.824 373.795 121.348 373.795 119.38C373.795 117.628 373.411 116.332 372.643 115.492C371.899 114.652 370.603 114.232 368.755 114.232C368.083 114.232 367.507 114.268 367.027 114.34C366.571 114.388 366.271 114.412 366.127 114.412V125.212C366.415 125.26 367.111 125.284 368.215 125.284H369.439ZM388.76 114.952L385.88 114.484V112.252H405.068L405.536 118.3H403.016L401.828 114.736L394.052 114.412V124.096L399.056 123.988L399.632 121.036H401.936V129.748H399.632L399.056 126.652L394.052 126.544V136.696L402.764 136.264L404.852 131.656L407.552 132.412L406.616 139H385.916V136.84L388.76 136.48V114.952ZM414.33 114.952L411.45 114.484V112.252H430.638L431.106 118.3H428.586L427.398 114.736L419.622 114.412V124.096L424.626 123.988L425.202 121.036H427.506V129.748H425.202L424.626 126.652L419.622 126.544V136.696L428.334 136.264L430.422 131.656L433.122 132.412L432.186 139H411.486V136.84L414.33 136.48V114.952ZM439.9 114.952L437.2 114.484V112.252H442.456C443.248 112.252 444.316 112.204 445.66 112.108C445.972 112.084 446.44 112.06 447.064 112.036C447.712 112.012 448.288 112 448.792 112C453.208 112 456.508 113.104 458.692 115.312C460.9 117.52 462.004 120.652 462.004 124.708C462.004 127.54 461.452 130.06 460.348 132.268C459.268 134.476 457.72 136.204 455.704 137.452C453.688 138.676 451.336 139.288 448.648 139.288C447.952 139.288 446.86 139.24 445.372 139.144C443.98 139.048 443.032 139 442.528 139H437.056V136.84L439.9 136.48V114.952ZM445.12 136.588C445.936 136.804 447.076 136.912 448.54 136.912C450.94 136.864 452.824 135.904 454.192 134.032C455.56 132.136 456.244 129.304 456.244 125.536C456.244 121.96 455.572 119.2 454.228 117.256C452.884 115.288 450.796 114.304 447.964 114.304C447.364 114.304 446.788 114.34 446.236 114.412C445.708 114.484 445.336 114.532 445.12 114.556V136.588Z" fill="#F3F6FB"/>
</svg>
