<svg width="237" height="202" viewBox="0 0 237 202" fill="none" xmlns="http://www.w3.org/2000/svg">
<path d="M84.948 76.64V97.088H51.972V116.096H84.948V138.272H47.652V158H109.572V56.912H47.652V76.64H84.948Z" fill="black"/>
<path d="M172.323 158L151.299 119.84H145.395V158H120.771V56.912H162.099C170.067 56.912 176.835 58.304 182.403 61.088C188.067 63.872 192.291 67.712 195.075 72.608C197.859 77.408 199.251 82.784 199.251 88.736C199.251 95.456 197.331 101.456 193.491 106.736C189.747 112.016 184.179 115.76 176.787 117.968L200.115 158H172.323ZM145.395 102.416H160.659C165.171 102.416 168.531 101.312 170.739 99.104C173.043 96.896 174.195 93.776 174.195 89.744C174.195 85.904 173.043 82.88 170.739 80.672C168.531 78.464 165.171 77.36 160.659 77.36H145.395V102.416Z" fill="black"/>
<path d="M111.488 155.57C111.488 154.478 111.764 153.647 112.316 153.077C112.868 152.507 113.648 152.222 114.656 152.222C115.664 152.222 116.444 152.507 116.996 153.077C117.548 153.647 117.824 154.478 117.824 155.57V157.235H111.488V155.57ZM117.662 155.57C117.662 154.526 117.398 153.737 116.87 153.203C116.342 152.669 115.604 152.402 114.656 152.402C113.708 152.402 112.97 152.669 112.442 153.203C111.914 153.737 111.65 154.526 111.65 155.57V157.055H117.662V155.57ZM111.65 139.891H114.575V137.245H114.737V139.891H117.662V136.975H117.824V140.071H111.488V136.975H111.65V139.891ZM117.887 123.182C117.887 123.584 117.815 123.935 117.671 124.235C117.527 124.529 117.338 124.757 117.104 124.919C116.864 125.081 116.606 125.177 116.33 125.207V125.027C116.54 124.997 116.75 124.922 116.96 124.802C117.17 124.676 117.35 124.481 117.5 124.217C117.65 123.947 117.725 123.602 117.725 123.182C117.725 122.846 117.662 122.549 117.536 122.291C117.404 122.033 117.23 121.835 117.014 121.697C116.798 121.559 116.558 121.49 116.294 121.49C115.952 121.49 115.682 121.568 115.484 121.724C115.28 121.88 115.13 122.075 115.034 122.309C114.938 122.537 114.839 122.846 114.737 123.236C114.629 123.644 114.521 123.971 114.413 124.217C114.305 124.463 114.14 124.673 113.918 124.847C113.69 125.015 113.384 125.099 113 125.099C112.724 125.099 112.466 125.024 112.226 124.874C111.98 124.718 111.785 124.499 111.641 124.217C111.497 123.929 111.425 123.602 111.425 123.236C111.425 122.864 111.491 122.543 111.623 122.273C111.755 122.003 111.923 121.793 112.127 121.643C112.325 121.487 112.535 121.385 112.757 121.337V121.517C112.583 121.559 112.406 121.646 112.226 121.778C112.046 121.91 111.896 122.099 111.776 122.345C111.65 122.591 111.587 122.888 111.587 123.236C111.587 123.542 111.647 123.824 111.767 124.082C111.881 124.334 112.046 124.538 112.262 124.694C112.472 124.844 112.718 124.919 113 124.919C113.348 124.919 113.627 124.841 113.837 124.685C114.041 124.523 114.194 124.325 114.296 124.091C114.392 123.857 114.491 123.545 114.593 123.155C114.701 122.747 114.809 122.423 114.917 122.183C115.019 121.937 115.181 121.73 115.403 121.562C115.619 121.394 115.916 121.31 116.294 121.31C116.558 121.31 116.813 121.382 117.059 121.526C117.305 121.664 117.506 121.874 117.662 122.156C117.812 122.438 117.887 122.78 117.887 123.182ZM111.488 109.069H117.824V109.249H111.488V109.069ZM113.369 91.254C112.841 91.446 112.415 91.776 112.091 92.244C111.761 92.706 111.596 93.255 111.596 93.891C111.596 94.419 111.722 94.899 111.974 95.331C112.22 95.763 112.577 96.105 113.045 96.357C113.507 96.603 114.047 96.726 114.665 96.726C115.283 96.726 115.826 96.603 116.294 96.357C116.756 96.105 117.113 95.763 117.365 95.331C117.611 94.899 117.734 94.419 117.734 93.891C117.734 93.375 117.614 92.904 117.374 92.478C117.134 92.046 116.789 91.701 116.339 91.443C115.883 91.185 115.355 91.05 114.755 91.038V94.026H114.593V90.867H114.665C115.289 90.867 115.847 90.996 116.339 91.254C116.831 91.512 117.215 91.872 117.491 92.334C117.761 92.79 117.896 93.309 117.896 93.891C117.896 94.473 117.761 94.995 117.491 95.457C117.215 95.913 116.831 96.27 116.339 96.528C115.847 96.786 115.289 96.915 114.665 96.915C114.041 96.915 113.483 96.786 112.991 96.528C112.499 96.27 112.118 95.913 111.848 95.457C111.572 94.995 111.434 94.473 111.434 93.891C111.434 93.207 111.608 92.622 111.956 92.136C112.304 91.65 112.775 91.296 113.369 91.074V91.254ZM117.824 74.424V74.604L111.821 78.537H117.824V78.717H111.497V78.537L117.491 74.604H111.497V74.424H117.824ZM117.887 60.3079C117.887 60.7099 117.815 61.0609 117.671 61.3609C117.527 61.6549 117.338 61.8829 117.104 62.0449C116.864 62.2069 116.606 62.3029 116.33 62.3329V62.1529C116.54 62.1229 116.75 62.0479 116.96 61.9279C117.17 61.8019 117.35 61.6069 117.5 61.3429C117.65 61.0729 117.725 60.7279 117.725 60.3079C117.725 59.9719 117.662 59.6749 117.536 59.4169C117.404 59.1589 117.23 58.9609 117.014 58.8229C116.798 58.6849 116.558 58.6159 116.294 58.6159C115.952 58.6159 115.682 58.6939 115.484 58.8499C115.28 59.0059 115.13 59.2009 115.034 59.4349C114.938 59.6629 114.839 59.9719 114.737 60.3619C114.629 60.7699 114.521 61.0969 114.413 61.3429C114.305 61.5889 114.14 61.7989 113.918 61.9729C113.69 62.1409 113.384 62.2249 113 62.2249C112.724 62.2249 112.466 62.1499 112.226 61.9999C111.98 61.8439 111.785 61.6249 111.641 61.3429C111.497 61.0549 111.425 60.7279 111.425 60.3619C111.425 59.9899 111.491 59.6689 111.623 59.3989C111.755 59.1289 111.923 58.9189 112.127 58.7689C112.325 58.6129 112.535 58.5109 112.757 58.4629V58.6429C112.583 58.6849 112.406 58.7719 112.226 58.9039C112.046 59.0359 111.896 59.2249 111.776 59.4709C111.65 59.7169 111.587 60.0139 111.587 60.3619C111.587 60.6679 111.647 60.9499 111.767 61.2079C111.881 61.4599 112.046 61.6639 112.262 61.8199C112.472 61.9699 112.718 62.0449 113 62.0449C113.348 62.0449 113.627 61.9669 113.837 61.8109C114.041 61.6489 114.194 61.4509 114.296 61.2169C114.392 60.9829 114.491 60.6709 114.593 60.2809C114.701 59.8729 114.809 59.5489 114.917 59.3089C115.019 59.0629 115.181 58.8559 115.403 58.6879C115.619 58.5199 115.916 58.4359 116.294 58.4359C116.558 58.4359 116.813 58.5079 117.059 58.6519C117.305 58.7899 117.506 58.9999 117.662 59.2819C117.812 59.5639 117.887 59.9059 117.887 60.3079Z" fill="white"/>
</svg>
